# xmcd
#
# Track frame offsets: 
#        150
#        19765
#        36547
#        77413
#        93944
#        111172
#        126646
#        151299
#        182306
#
# Disc length: 2773 seconds
#
# Revision: 4
# Processed by: cddbd v1.5.2PL0 Copyright (c) Steve Scherf et al.
# Submitted via: ExactAudioCopyFreeDBPlugin 1.0
#
DISCID=690ad309
DTITLE=Charlie - Charlie Jazz CD2
DYEAR=2001
DGENRE=Jazz
TTITLE0=A mama hívott ma éjjel
TTITLE1=Ne félj, ez így most jó
TTITLE2=God Bless The Child
TTITLE3=My Baby Just Cares For Me
TTITLE4=Roxanne
TTITLE5=Spinnin' Wheel
TTITLE6=Jég dupla whiskyvel
TTITLE7=Georgia On My Mind
TTITLE8=How Sweet It Is
EXTD=YEAR: 2001\nby Lajos
EXTT0=
EXTT1=
EXTT2=
EXTT3=
EXTT4=
EXTT5=
EXTT6=
EXTT7=
EXTT8=
PLAYORDER=
